# xmcd CD database file
#
# Track frame offsets:
#	150
#	15133
#	27950
#	40296
#	49560
#	65072
#	77391
#	89128
#	110050
#	125918
#	135927
#	147709
#	159871
#	171016
#	184644
#	198478
#	210609
#	228762
#	240523
#
# Disc length: 3309 seconds
#
# Revision: 0
# Processed by: cddbd v1.5.2PL0 Copyright (c) Steve Scherf et al.
# Submitted via: CDex 1.51
#
DISCID=fc0ceb13
DTITLE=Don Lite - Don Lite
DYEAR=2007
DGENRE=Country
TTITLE0=Living In A Memory
TTITLE1=Truckers Road
TTITLE2=Shes So Kind
TTITLE3=Ten Percent
TTITLE4=Dont Forget Jesus
TTITLE5=Honky Tonk Escape
TTITLE6=Dance With A Stranger
TTITLE7=The Great USA
TTITLE8=Margaret
TTITLE9=Box Full Of Dreams
TTITLE10=Whats Another Song To Sing
TTITLE11=Senorita
TTITLE12=Just For Me
TTITLE13=Love From The Start
TTITLE14=Jaquelin
TTITLE15=On Jesus Rocking Chair
TTITLE16=Confessions Of A Sinner
TTITLE17=Backside Of A Heartache
TTITLE18=Interlude
EXTD=YEAR: 2007
EXTT0=
EXTT1=
EXTT2=
EXTT3=
EXTT4=
EXTT5=
EXTT6=
EXTT7=
EXTT8=
EXTT9=
EXTT10=
EXTT11=
EXTT12=
EXTT13=
EXTT14=
EXTT15=
EXTT16=
EXTT17=
EXTT18=
PLAYORDER=
